<svg width="349" height="62" viewBox="0 0 349 62" fill="none" xmlns="http://www.w3.org/2000/svg">
<g clip-path="url(#clip0_516_238)">
<path d="M58.8811 30.0659C58.8811 32.1778 58.6385 34.2084 58.2341 36.1578C50.3886 31.1218 41.2491 9.75965 41.2491 9.75965H35.911C34.6169 16.9887 27.7421 25.3549 27.7421 25.3549C26.0436 24.3802 24.1024 11.3029 24.1024 11.3029H19.654C19.007 19.8316 4.69108 36.5639 1.61761 39.6505C0.566165 36.6451 0 33.3961 0 30.0659C0 13.7397 13.1835 0.5 29.4406 0.5C45.6976 0.5 58.8811 13.7397 58.8811 30.0659Z" fill="#0F5EA2"/>
<path d="M1.61768 39.6505L4.0441 38.026C10.5954 33.2338 14.8821 29.3349 16.6615 27.3855C18.6026 25.4361 19.8158 24.2178 19.8158 24.2178L25.1539 37.7011C25.1539 37.7011 33.9699 38.1073 33.3229 37.7011C32.6758 37.295 30.0877 31.8529 30.0877 31.8529C30.0877 31.8529 33.4038 29.0913 35.1831 27.6292C36.3155 26.5733 37.7713 24.9488 37.7713 24.9488C39.1463 29.0913 44.8079 36.0766 49.1755 41.0314C23.051 45.0114 1.86032 39.6505 1.61768 39.6505Z" fill="#E21F27"/>
<path d="M14.4777 45.2549C9.78665 44.93 6.06614 44.3614 3.47796 43.9553C3.07356 43.2243 2.75004 42.4932 2.42651 41.7622C2.42651 41.7622 2.42651 41.7622 2.50739 41.7622C25.2349 46.4733 49.0947 42.6557 50.4696 42.412C51.0358 43.0618 51.6019 43.6304 52.0872 44.199C37.0434 46.5545 22.9702 45.9859 14.4777 45.2549Z" fill="#17AF4E"/>
<path d="M43.6756 55.8955C39.5506 58.251 34.6169 59.6319 29.4406 59.6319C24.5068 59.6319 19.8966 58.4135 15.7717 56.2204C15.8526 56.2204 15.8526 56.2204 15.9335 56.2204C33.2419 57.8449 43.6756 55.8955 43.6756 55.8955Z" fill="#17AF4E"/>
<path d="M48.771 52.3218C47.8813 53.134 46.9107 53.8651 45.8592 54.5961C29.9258 56.383 16.1761 55.0834 13.507 54.8398C12.4555 54.19 11.485 53.3777 10.5144 52.5655C12.6982 52.8091 15.3672 53.0528 18.3598 53.2965C21.1906 53.4589 24.5876 53.6214 28.389 53.6214C34.2124 53.5402 41.1682 53.2965 48.771 52.3218Z" fill="#17AF4E"/>
<path d="M52.2489 48.6665C51.6018 49.4788 50.9548 50.2098 50.2269 50.8596C37.2051 52.6465 25.8818 52.4841 18.4408 52.078C14.5585 51.8343 11.3233 51.5094 8.89684 51.1845C8.16892 50.4535 7.44099 49.7224 6.79395 48.9102C9.38213 49.3163 13.3453 49.8037 18.279 50.1286C21.1098 50.291 24.5877 50.4535 28.3891 50.4535C35.1831 50.4535 43.2711 50.0473 52.2489 48.6665Z" fill="#17AF4E"/>
<path d="M54.0282 46.3108C53.8665 46.6357 53.6238 46.8794 53.4621 47.2043C39.0653 49.3974 26.5288 49.3161 18.5216 48.8288C12.4556 48.4227 8.00713 47.7729 5.66159 47.2855C5.17631 46.6357 4.77191 45.9859 4.28662 45.2549C6.79392 45.661 10.2718 46.1484 14.4776 46.4733C18.1172 46.7982 22.5657 47.0418 27.8229 47.0418C34.9404 47.0418 43.5137 46.6357 53.0577 45.3361C53.4621 45.7422 53.7856 46.0671 54.0282 46.3108Z" fill="#17AF4E"/>
<path d="M84.1968 7.2417V9.1911H81.9322V23.4867H77.8073V15.0393H75.1382C75.2191 17.3136 74.8956 19.0193 74.4103 20.1565C73.6823 21.781 72.3074 22.5932 70.2854 22.6745C68.5869 22.7557 67.2928 22.3496 66.3222 21.4561C65.3516 20.5626 64.8663 19.263 64.8663 17.5573C64.8663 16.1765 65.2708 15.0393 66.0796 14.0646C66.8884 13.0899 68.0207 12.6838 69.3957 12.6838C69.8001 12.6838 70.1236 12.765 70.528 12.8462L71.2559 15.0393C70.9324 14.8769 70.6898 14.8769 70.4471 14.8769C69.8001 14.8769 69.3148 15.2018 68.9913 15.8516C68.7486 16.3389 68.5869 16.9887 68.5869 17.6385C68.5869 18.2883 68.7486 18.9381 68.9913 19.5067C69.3148 20.2377 69.8001 20.5626 70.4471 20.5626C71.2559 20.5626 71.5794 19.9128 71.5794 18.532V9.1911H64.7046V7.2417H84.1968ZM75.1382 9.1911V12.8462H77.8073V9.1911H75.1382Z" fill="#17AF4E"/>
<path d="M80.7999 23.4868C83.5499 23.4868 84.9249 24.3803 84.9249 26.2485C84.9249 28.1979 82.9837 29.2538 79.1823 29.2538C77.4838 29.2538 75.6236 28.5228 73.6016 27.1419L75.3809 25.1113C75.5427 25.8423 76.028 26.4109 76.8368 26.817C77.6456 27.3044 78.3735 27.5481 79.1823 27.5481C80.1529 27.5481 80.6382 27.1419 80.6382 26.4109C80.6382 25.8423 80.2338 25.5987 79.5059 25.5987C78.6162 25.5987 77.9691 25.9236 77.4838 26.6546V24.4615C78.05 23.8117 79.1823 23.4868 80.7999 23.4868Z" fill="#17AF4E"/>
<path d="M91.1525 7.24172V9.19112H88.8879V23.4867H84.7629V9.19112H83.6306V7.24172H84.8438C84.4394 6.8356 84.1968 6.42947 84.1159 5.94212C83.9541 4.15517 84.6012 2.77435 86.1379 1.79964C87.2702 1.06862 88.8879 0.743719 90.829 0.662494C92.851 0.581269 95.0348 0.906169 97.3803 1.71842C100.13 2.69312 102.233 3.99272 103.77 5.61722L99.4832 7.1605C97.8656 4.48007 95.601 3.09925 92.6084 3.09925C89.8584 3.09925 88.3217 3.9115 88.0791 5.45477C87.9982 6.10457 88.2408 6.59192 88.807 7.1605H91.1525V7.24172Z" fill="#17AF4E"/>
<path d="M90.5864 12.765V10.9781H97.2186C98.8363 10.9781 100.211 11.1405 101.182 11.3842V9.27233H90.5864V7.2417H107.895V9.1911H105.63V23.4867H101.182V13.7397C100.292 13.3336 99.4833 13.0899 98.7554 13.0899C97.623 13.0899 96.7334 13.5773 96.0863 14.552C95.601 15.3642 95.2775 16.3389 95.3584 17.6385C95.3584 20.7251 96.4907 22.2683 98.6745 22.2683C99.0789 22.2683 99.4024 22.2683 99.8068 22.1871L98.4318 24.7863C96.2481 24.7051 94.5496 24.1365 93.1746 22.9994C91.7188 21.781 90.9908 20.1565 90.9099 18.0446C90.8291 15.8516 91.3952 14.1458 92.6893 12.8462H90.5864V12.765Z" fill="#17AF4E"/>
<path d="M105.064 7.2417H117.762V9.1911H105.064V7.2417ZM105.064 11.9528C106.601 10.8968 108.218 10.3283 109.836 10.3283C111.534 10.3283 112.909 10.8968 113.961 11.9528C115.012 13.0899 115.498 14.4707 115.498 16.1765C115.498 18.1259 114.77 19.6691 113.476 20.8875C112.262 21.9434 110.806 22.512 109.189 22.512C108.784 22.512 108.461 22.512 108.057 22.4308L107.248 19.5879C107.733 19.994 108.218 20.2377 108.784 20.2377C109.593 20.2377 110.24 19.7504 110.564 18.7757C110.887 18.0446 110.968 17.2324 110.968 16.3389C110.968 14.0646 110.159 12.9275 108.461 12.9275C107.41 12.9275 106.277 13.4148 105.064 14.3083V11.9528Z" fill="#17AF4E"/>
<path d="M125.769 12.765C127.711 13.5773 128.681 14.9581 128.681 16.9075C128.6 20.6438 126.902 22.512 123.505 22.5932C121.806 22.6745 120.431 22.1059 119.38 21.05C118.328 19.994 117.762 18.6132 117.762 16.9075C117.762 14.7956 118.49 13.1711 120.027 12.1152C121.402 11.1405 123.181 10.6532 125.365 10.6532C126.902 10.6532 128.519 10.8968 130.218 11.4654V9.27233H117.196V7.2417H136.688V9.1911H134.343V23.4867H130.218V13.8209C129.166 13.2524 127.711 12.9275 125.769 12.765ZM123.828 14.4707L125.608 13.0087C123.667 13.0899 122.615 14.3083 122.534 16.8263C122.534 17.4761 122.615 18.0446 122.858 18.6132C123.1 19.3442 123.586 19.7504 124.152 19.7504C125.122 19.7504 125.527 18.7757 125.446 16.9075C125.365 15.2018 125.041 14.3895 124.314 14.3895C124.152 14.3895 123.99 14.3895 123.828 14.4707Z" fill="#17AF4E"/>
<path d="M137.255 23.4867V9.1911H136.122V7.2417H143.725V9.1911H141.38V23.4867H137.255Z" fill="#17AF4E"/>
<path d="M149.386 6.91699C151.732 6.91699 153.431 7.89169 154.482 9.84109C154.967 10.8158 155.21 11.7093 155.21 12.6027C155.21 13.5774 154.967 14.4709 154.401 15.4456C153.188 17.4762 151.004 18.5322 147.85 18.6134C150.114 20.1567 151.894 20.9689 153.107 20.9689C154.482 20.9689 155.695 20.1567 156.747 18.6134V9.19129H154.644V7.24189H163.217V9.19129H160.71V23.4869H156.747V21.8624C155.453 22.8371 153.916 23.3244 152.056 23.3244C150.357 23.3244 148.82 22.9183 147.203 22.1873C145.504 21.375 144.291 20.3191 143.482 18.9383V15.2832C144.776 15.933 145.99 16.2579 147.041 16.2579C148.254 16.2579 149.306 15.8517 150.034 15.0395C150.761 14.2272 151.166 13.1713 151.166 11.8717C151.166 11.2219 151.085 10.6533 150.842 10.0848C150.519 9.43497 150.114 9.11007 149.548 9.02884C148.982 8.94762 148.578 9.11007 148.254 9.59742C147.931 10.0035 147.769 10.4909 147.769 11.0595C147.769 12.1966 148.254 12.7652 149.225 12.7652C149.387 12.7652 149.467 12.7652 149.629 12.7652L147.931 14.2272C147.769 14.3085 147.526 14.3085 147.284 14.3085C146.394 14.3085 145.585 13.9836 144.857 13.3338C144.129 12.684 143.806 11.9529 143.806 11.0595C143.806 10.4097 143.967 9.84109 144.372 9.27252H143.159V7.24189H145.019V8.21659C145.828 7.32312 147.364 6.91699 149.386 6.91699Z" fill="#17AF4E"/>
<path d="M179.231 13.0899C178.827 12.8462 178.342 12.6838 177.857 12.6838C176.886 12.6838 176.158 13.1711 175.673 13.9834C175.268 14.7144 175.107 15.5267 175.107 16.6638C175.107 17.6385 175.268 18.3695 175.592 19.0193C175.996 19.9128 176.643 20.3189 177.452 20.3189C178.099 20.3189 178.746 20.0753 179.393 19.5067V9.1911H170.739V7.2417H185.783V9.1911H183.518V23.4867H179.393V22.1871C178.908 22.5932 178.099 22.7557 176.805 22.7557C174.945 22.7557 173.489 22.1871 172.438 21.1312C171.386 20.0753 170.82 18.532 170.82 16.6638C170.739 14.7144 171.224 13.1711 172.114 12.1152C173.085 10.8968 174.54 10.3283 176.401 10.3283C177.048 10.3283 177.776 10.4095 178.423 10.5719L179.231 13.0899Z" fill="#17AF4E"/>
<path d="M185.379 28.7661C184.246 29.0098 183.518 29.1722 183.033 29.1722C179.232 29.1722 177.371 28.1976 177.291 26.1669C177.291 24.38 178.666 23.4053 181.415 23.4053C183.114 23.4053 184.165 23.6489 184.651 24.0551V25.842C184.165 25.5983 183.518 25.4359 182.629 25.4359C181.901 25.4359 181.496 25.6796 181.496 26.2481C181.496 26.9792 181.982 27.3853 182.871 27.3853C183.923 27.3853 184.893 27.0604 185.702 26.3294L185.379 28.7661Z" fill="#17AF4E"/>
<path d="M182.952 7.2417H195.731V9.1911H183.033V7.2417H182.952ZM182.952 11.9528C184.489 10.8968 186.107 10.3283 187.724 10.3283C189.423 10.3283 190.798 10.8968 191.849 11.9528C192.9 13.0899 193.386 14.4707 193.386 16.1765C193.386 18.1259 192.658 19.6691 191.364 20.8875C190.151 21.9434 188.695 22.512 187.077 22.512C186.673 22.512 186.349 22.512 185.945 22.4308L185.136 19.5879C185.621 19.994 186.106 20.2377 186.673 20.2377C187.481 20.2377 188.129 19.7504 188.452 18.7757C188.776 18.0446 188.856 17.2324 188.856 16.3389C188.856 14.0646 188.048 12.9275 186.349 12.9275C185.298 12.9275 184.165 13.4148 182.952 14.3083V11.9528Z" fill="#17AF4E"/>
<path d="M202.606 7.24172V9.19112H200.341V23.4867H196.217V9.19112H195.084V7.24172H196.297C195.893 6.8356 195.65 6.42947 195.57 5.94212C195.408 4.15517 196.055 2.77435 197.592 1.79964C198.724 1.06862 200.341 0.743719 202.283 0.662494C204.305 0.581269 206.488 0.906169 208.834 1.71842C211.584 2.69312 213.687 3.99272 215.224 5.61722L210.937 7.1605C209.319 4.48007 207.055 3.09925 204.062 3.09925C201.312 3.09925 199.775 3.9115 199.533 5.45477C199.452 6.10457 199.694 6.59192 200.261 7.1605H202.606V7.24172Z" fill="#17AF4E"/>
<path d="M214.657 7.2417V9.1911H209.157L214.576 17.0699V19.9128C213.525 21.3749 211.907 22.1059 209.805 22.1059C208.187 22.1059 206.812 21.6998 205.599 20.8875C204.224 19.994 203.577 18.7757 203.577 17.2324V9.27233H202.121V7.2417H214.657ZM212.716 18.2883L207.621 10.6532V16.8263C207.621 17.6385 207.863 18.3695 208.349 18.8569C208.834 19.3442 209.481 19.5879 210.29 19.5879C211.584 19.5067 212.393 19.1006 212.716 18.2883Z" fill="#17AF4E"/>
<path d="M212.959 23.4867V9.1911H211.826V7.2417H219.429V9.1911H217.084V23.4867H212.959Z" fill="#17AF4E"/>
<path d="M235.525 13.0899C234.958 12.765 234.392 12.6026 233.907 12.6026C233.017 12.6026 232.451 13.0899 232.047 13.9834C231.723 14.6332 231.561 15.5267 231.561 16.5014C231.561 17.4761 231.723 18.2883 232.128 19.0193C232.532 19.9128 233.179 20.3189 234.069 20.3189C234.635 20.3189 235.12 20.1565 235.686 19.8316V9.27233H226.951V7.2417H250.568V9.1911H239.973V11.2217C240.944 10.5719 242.076 10.247 243.289 10.247C244.988 10.247 246.363 10.8156 247.495 11.9528C248.546 13.0899 249.112 14.4707 249.032 16.2577C249.032 18.2071 248.304 19.7504 247.01 20.9687C245.796 22.0247 244.341 22.5932 242.723 22.5932C242.318 22.5932 241.995 22.5932 241.591 22.512L240.782 19.6691C241.267 20.0753 241.752 20.3189 242.318 20.3189C243.127 20.3189 243.774 19.8316 244.098 18.8569C244.421 18.1259 244.502 17.3136 244.502 16.3389C244.502 14.0646 243.613 12.8462 241.914 12.8462C241.267 12.8462 240.62 13.0087 239.973 13.4148V23.4055H235.767V22.1059C235.444 22.3496 234.716 22.512 233.583 22.512C231.642 22.512 230.106 22.0247 228.973 21.05C227.679 19.994 227.032 18.532 227.032 16.5826C227.032 14.7144 227.517 13.1711 228.569 11.9528C229.539 10.7344 230.995 10.1658 232.855 10.1658C233.502 10.1658 234.15 10.247 234.877 10.4095L235.525 13.0899Z" fill="#17AF4E"/>
<path d="M265.45 15.0393H260.517C260.598 17.3136 260.355 19.0193 259.789 20.1565C259.061 21.781 257.686 22.5932 255.664 22.6745C253.965 22.7557 252.671 22.3496 251.701 21.4561C250.73 20.5626 250.245 19.263 250.245 17.5573C250.245 16.1765 250.649 15.0393 251.458 14.0646C252.267 13.0899 253.399 12.6838 254.774 12.6838C255.179 12.6838 255.502 12.765 255.907 12.8462L256.634 15.0393C256.311 14.8769 256.068 14.8769 255.826 14.8769C255.179 14.8769 254.693 15.2018 254.37 15.8516C254.127 16.3389 253.965 16.9887 253.965 17.6385C253.965 18.2883 254.127 18.9381 254.37 19.5067C254.693 20.2377 255.179 20.5626 255.826 20.5626C256.634 20.5626 256.958 19.9128 256.958 18.532V9.1911H249.921V7.2417H265.45V9.1911H260.436V12.8462H265.37V15.0393H265.45Z" fill="#17AF4E"/>
<path d="M265.127 17.1512V9.1911H263.671V7.2417H280.171V9.1911H277.906V23.4867H273.943V21.2124C272.972 22.0247 271.84 22.3496 270.546 22.3496C269.009 22.3496 267.715 21.8622 266.663 20.8875C265.612 19.994 265.127 18.6944 265.127 17.1512ZM273.862 18.2071V9.1911H269.171V16.8263C269.171 18.6132 269.98 19.5067 271.597 19.5067C272.81 19.5067 273.538 19.1006 273.862 18.2071Z" fill="#17AF4E"/>
<path d="M288.097 12.765C290.038 13.5773 291.009 14.9581 291.009 16.9075C290.928 20.6438 289.229 22.512 285.832 22.5932C284.134 22.6745 282.759 22.1059 281.707 21.05C280.656 19.994 280.09 18.6132 280.09 16.9075C280.09 14.7956 280.818 13.1711 282.355 12.1152C283.729 11.1405 285.509 10.6532 287.693 10.6532C289.229 10.6532 290.847 10.8968 292.545 11.4654V9.27233H279.524V7.2417H299.016V9.1911H296.67V23.4867H292.545V13.8209C291.494 13.2524 290.038 12.9275 288.097 12.765ZM286.156 14.4707L287.935 13.0087C285.994 13.0899 284.943 14.3083 284.862 16.8263C284.862 17.4761 284.943 18.0446 285.185 18.6132C285.428 19.3442 285.913 19.7504 286.479 19.7504C287.45 19.7504 287.854 18.7757 287.773 16.9075C287.693 15.2018 287.369 14.3895 286.641 14.3895C286.479 14.3895 286.318 14.3895 286.156 14.4707Z" fill="#17AF4E"/>
<path d="M296.266 3.66803C295.538 3.74925 295.134 4.07415 295.134 4.5615C295.134 4.96763 295.376 5.45498 295.781 6.02355C296.023 6.26723 296.428 6.67335 297.075 7.24193H292.465C291.575 6.42968 291.17 5.45498 291.17 4.48028C291.17 3.42435 291.656 2.53088 292.626 1.9623C293.435 1.47495 294.406 1.3125 295.619 1.3125C297.156 1.3125 298.611 1.71863 299.906 2.6121C300.957 3.34313 302.251 4.48028 303.707 6.186L301.038 7.24193H306.295V9.19133H304.03V23.4869H299.906V9.19133H298.45V7.24193H299.825C299.744 6.42968 299.339 5.61743 298.611 4.80518C297.803 3.99293 297.075 3.5868 296.266 3.66803Z" fill="#17AF4E"/>
<path d="M321.501 7.24172V9.19112H319.236V23.4867H315.111V9.19112H313.979V7.24172H315.192C314.788 6.8356 314.545 6.42947 314.464 5.94212C314.302 4.15517 314.949 2.77435 316.486 1.79964C317.618 1.06862 319.236 0.743719 321.177 0.662494C323.199 0.581269 325.383 0.906169 327.728 1.71842C330.478 2.69312 332.581 3.99272 334.118 5.61722L329.831 7.1605C328.214 4.48007 325.949 3.09925 322.956 3.09925C320.207 3.09925 318.67 3.9115 318.427 5.45477C318.346 6.10457 318.589 6.59192 319.155 7.1605H321.501V7.24172Z" fill="#17AF4E"/>
<path d="M329.912 16.014C329.912 15.283 329.75 14.6332 329.427 14.1458C329.022 13.4148 328.537 13.0899 327.89 13.0899C327.081 13.0899 326.434 13.6585 326.03 14.7956C325.787 15.6079 325.625 16.5826 325.625 17.5573C325.625 20.7251 326.758 22.3496 329.022 22.3496C330.074 22.3496 331.287 22.0247 332.662 21.3749L331.853 24.2177C330.802 24.4614 329.75 24.6239 328.699 24.6239C326.596 24.6239 324.817 24.0553 323.442 22.8369C321.986 21.6185 321.177 19.9128 321.177 17.8822C321.177 15.8516 321.662 14.1458 322.552 12.8462C323.603 11.3842 325.059 10.5719 327 10.5719C328.052 10.5719 329.103 10.8156 329.993 11.3842C330.883 11.9528 331.53 12.6838 331.934 13.6585C332.096 12.8462 332.419 12.2777 333.066 11.7903C333.714 11.303 334.441 11.1405 335.25 11.1405C336.059 11.1405 336.706 11.3842 337.111 11.7903V9.10988H320.854V7.2417H343.743V9.1911H341.478V23.4867H337.111V14.552C336.706 14.1458 336.221 13.9834 335.574 13.9834C334.522 13.9834 333.956 14.7144 333.956 16.0952V19.3442H329.831V16.014H329.912Z" fill="#17AF4E"/>
<path d="M344.875 19.5879C345.199 19.263 345.603 19.1006 346.088 19.1006C346.574 19.1006 346.978 19.263 347.302 19.5879C347.625 19.9128 347.787 20.319 347.787 20.8063C347.787 21.2937 347.625 21.6998 347.302 22.0247C346.978 22.3496 346.574 22.512 346.088 22.512C345.603 22.512 345.199 22.3496 344.875 22.0247C344.552 21.6998 344.39 21.2937 344.39 20.8063C344.39 20.319 344.552 19.9128 344.875 19.5879Z" fill="#17AF4E"/>
<path d="M78.2115 35.5078V47.2042H75.3807V40.2189L72.7925 47.123H70.5279L67.9397 40.1376V47.123H65.1089V35.5078H68.425L71.6602 43.5491L74.8954 35.5078H78.2115Z" fill="#0F5EA2"/>
<path d="M82.9836 35.5078V42.4932C82.9836 43.2242 83.1453 43.7115 83.4689 44.1177C83.7924 44.5238 84.2777 44.6862 85.0056 44.6862C85.7335 44.6862 86.1379 44.5238 86.5423 44.1177C86.8659 43.7115 87.1085 43.2242 87.1085 42.4932V35.5078H89.9393V42.4932C89.9393 43.5491 89.6967 44.4426 89.2923 45.1736C88.8879 45.9046 88.2408 46.4732 87.5129 46.7981C86.785 47.2042 85.9762 47.3667 85.0056 47.3667C84.1159 47.3667 83.3071 47.2042 82.5792 46.7981C81.8513 46.4732 81.2851 45.9046 80.8807 45.1736C80.4763 44.4426 80.2336 43.5491 80.2336 42.4932V35.5078H82.9836Z" fill="#0F5EA2"/>
<path d="M98.5935 47.123L94.7112 42.0058V47.123H91.8804V35.5078H94.7112V40.625L98.5935 35.5078H101.91L97.4611 41.1936L102.152 47.123H98.5935Z" fill="#0F5EA2"/>
<path d="M111.696 35.5078V37.7821H108.623V47.2042H105.792V37.7821H102.719V35.5078H111.696Z" fill="#0F5EA2"/>
<path d="M115.902 35.5078V47.2042H113.071V35.5078H115.902Z" fill="#0F5EA2"/>
<path d="M128.358 47.123H125.527L120.836 39.894V47.123H118.005V35.5078H120.836L125.527 42.7368V35.5078H128.358V47.123Z" fill="#0F5EA2"/>
<path d="M137.578 45.0925H133.291L132.563 47.1232H129.571L133.777 35.4268H137.012L141.218 47.1232H138.306L137.578 45.0925ZM136.85 42.8995L135.394 38.5945L133.938 42.8995H136.85Z" fill="#0F5EA2"/>
<path d="M150.842 35.5078V37.7821H147.769V47.2042H144.938V37.7821H141.865V35.5078H150.842Z" fill="#0F5EA2"/>
<path d="M162.328 35.5078V47.2042H159.497V42.4119H155.129V47.2042H152.298V35.5078H155.129V40.0564H159.497V35.5078H162.328Z" fill="#0F5EA2"/>
<path d="M174.54 47.123L170.658 42.0058V47.123H167.827V35.5078H170.658V40.625L174.54 35.5078H177.857L173.408 41.1936L178.099 47.123H174.54Z" fill="#0F5EA2"/>
<path d="M185.298 47.123L182.871 42.7368H182.224V47.123H179.393V35.5078H184.165C185.055 35.5078 185.864 35.6703 186.511 35.9952C187.158 36.3201 187.643 36.7262 187.967 37.2948C188.29 37.8633 188.452 38.5131 188.452 39.1629C188.452 39.9752 188.209 40.625 187.805 41.2748C187.4 41.9246 186.753 42.3307 185.864 42.5744L188.533 47.2042H185.298V47.123ZM182.143 40.7062H183.923C184.408 40.7062 184.812 40.5438 185.055 40.3001C185.298 40.0564 185.459 39.6503 185.459 39.2442C185.459 38.838 185.298 38.4319 185.055 38.1882C184.812 37.9446 184.408 37.7821 183.923 37.7821H182.143V40.7062Z" fill="#0F5EA2"/>
<path d="M192.981 35.5078V47.2042H190.15V35.5078H192.981Z" fill="#0F5EA2"/>
<path d="M196.863 46.8793C196.216 46.6357 195.65 46.2295 195.246 45.661C194.841 45.0924 194.599 44.4426 194.599 43.7116H197.591C197.672 44.1177 197.753 44.4426 198.077 44.6863C198.319 44.9299 198.643 45.0112 199.047 45.0112C199.452 45.0112 199.775 44.9299 200.018 44.6863C200.26 44.5238 200.341 44.1989 200.341 43.874C200.341 43.5491 200.26 43.3867 200.018 43.143C199.856 42.9805 199.613 42.8181 199.29 42.6556C198.966 42.4932 198.643 42.412 198.077 42.2495C197.349 42.0058 196.702 41.7622 196.216 41.5185C195.731 41.2748 195.327 40.9499 195.003 40.4626C194.68 39.9752 194.518 39.4066 194.518 38.6756C194.518 37.6197 194.922 36.7262 195.65 36.1576C196.378 35.5891 197.43 35.2642 198.724 35.2642C200.018 35.2642 200.988 35.5891 201.797 36.1576C202.606 36.7262 203.01 37.6197 203.091 38.7568H200.018C200.018 38.3507 199.856 38.107 199.613 37.8634C199.371 37.6197 199.047 37.5385 198.643 37.5385C198.319 37.5385 197.996 37.6197 197.834 37.7821C197.672 37.9446 197.51 38.1883 197.51 38.5944C197.51 39.0005 197.672 39.2442 198.077 39.4879C198.481 39.7315 198.966 39.894 199.694 40.1377C200.422 40.3813 201.069 40.625 201.554 40.8687C202.04 41.1124 202.444 41.4373 202.768 41.8434C203.091 42.2495 203.253 42.8181 203.253 43.5491C203.253 44.1989 203.091 44.8487 202.768 45.3361C202.444 45.9046 201.959 46.3108 201.312 46.6357C200.665 46.9606 199.937 47.123 199.047 47.123C198.319 47.2855 197.591 47.123 196.863 46.8793Z" fill="#0F5EA2"/>
<path d="M215.142 35.5078V47.2042H212.312V42.4119H207.944V47.2042H205.113V35.5078H207.944V40.0564H212.312V35.5078H215.142Z" fill="#0F5EA2"/>
<path d="M219.995 35.5078V47.2042H217.165V35.5078H219.995Z" fill="#0F5EA2"/>
<path d="M225.819 38.1881C226.304 37.2946 227.032 36.5636 227.922 36.0762C228.811 35.5889 229.782 35.3452 230.914 35.3452C232.289 35.3452 233.502 35.6701 234.473 36.4824C235.444 37.2134 236.091 38.1881 236.414 39.4877H233.341C233.098 39.0003 232.774 38.5942 232.37 38.3505C231.966 38.1069 231.48 37.9444 230.914 37.9444C230.025 37.9444 229.377 38.2693 228.811 38.8379C228.245 39.4877 228.003 40.2999 228.003 41.2746C228.003 42.2493 228.245 43.1428 228.811 43.7114C229.377 44.3612 230.025 44.6049 230.914 44.6049C231.48 44.6049 231.966 44.4424 232.37 44.1987C232.774 43.9551 233.098 43.5489 233.341 43.0616H236.414C236.091 44.3612 235.444 45.3359 234.473 46.0669C233.502 46.7979 232.289 47.1228 230.914 47.1228C229.782 47.1228 228.811 46.8792 227.922 46.3918C227.032 45.9045 226.385 45.1734 225.819 44.28C225.333 43.3865 225.091 42.3306 225.091 41.1934C225.091 40.1375 225.333 39.0816 225.819 38.1881Z" fill="#0F5EA2"/>
<path d="M240.62 46.473C239.73 45.9857 239.002 45.2547 238.436 44.3612C237.87 43.4677 237.627 42.4118 237.627 41.2746C237.627 40.1375 237.87 39.0816 238.436 38.1881C239.002 37.2946 239.73 36.5636 240.62 36.0762C241.509 35.5889 242.561 35.3452 243.612 35.3452C244.664 35.3452 245.715 35.5889 246.605 36.0762C247.495 36.5636 248.223 37.2946 248.789 38.1881C249.274 39.0816 249.598 40.1375 249.598 41.2746C249.598 42.4118 249.355 43.4677 248.789 44.3612C248.223 45.2547 247.576 45.9857 246.605 46.473C245.715 46.9604 244.745 47.2041 243.612 47.2041C242.48 47.2041 241.509 47.0416 240.62 46.473ZM245.796 43.7114C246.362 43.0616 246.605 42.2493 246.605 41.2746C246.605 40.2187 246.362 39.4065 245.796 38.8379C245.23 38.1881 244.502 37.9444 243.612 37.9444C242.642 37.9444 241.914 38.2693 241.348 38.8379C240.782 39.4877 240.539 40.2999 240.539 41.2746C240.539 42.3306 240.782 43.1428 241.348 43.7114C241.914 44.3612 242.642 44.6049 243.612 44.6049C244.502 44.6861 245.311 44.3612 245.796 43.7114Z" fill="#0F5EA2"/>
<path d="M264.237 35.5078V47.2042H261.406V40.2189L258.818 47.2042H256.553L253.965 40.2189V47.2042H251.134V35.5078H254.45L257.686 43.5491L260.921 35.5078H264.237Z" fill="#0F5EA2"/>
<path d="M274.59 41.1123C274.266 41.6809 273.781 42.087 273.134 42.4932C272.487 42.8181 271.678 42.9805 270.788 42.9805H269.009V47.2042H266.178V35.5078H270.788C271.678 35.5078 272.487 35.6703 273.134 35.9952C273.781 36.3201 274.266 36.7262 274.59 37.2948C274.913 37.8633 275.075 38.5131 275.075 39.2442C275.075 39.894 274.913 40.5438 274.59 41.1123ZM271.84 40.3001C272.083 40.0564 272.244 39.6503 272.244 39.2442C272.244 38.7568 272.083 38.4319 271.84 38.1882C271.597 37.9446 271.193 37.7821 270.627 37.7821H269.09V40.7062H270.627C271.112 40.7062 271.516 40.5438 271.84 40.3001Z" fill="#0F5EA2"/>
<path d="M283.729 45.0925H279.443L278.715 47.1232H275.803L280.009 35.4268H283.244L287.45 47.1232H284.457L283.729 45.0925ZM283.001 42.8995L281.546 38.5945L280.09 42.8995H283.001Z" fill="#0F5EA2"/>
<path d="M299.097 47.123H296.266L291.575 39.894V47.123H288.744V35.5078H291.575L296.266 42.7368V35.5078H299.097V47.123Z" fill="#0F5EA2"/>
<path d="M311.067 35.5078L307.023 43.3054V47.123H304.192V43.3054L300.148 35.5078H303.383L305.648 40.3813L307.912 35.5078H311.067Z" fill="#0F5EA2"/>
<path d="M318.508 44.9299H322.229V47.123H315.677V35.5078H318.508V44.9299Z" fill="#0F5EA2"/>
<path d="M331.934 35.5078V37.7821H328.861V47.2042H326.03V37.7821H322.956V35.5078H331.934Z" fill="#0F5EA2"/>
<path d="M340.831 36.2388C341.721 36.7262 342.449 37.376 342.934 38.2695C343.419 39.1629 343.662 40.1376 343.662 41.356C343.662 42.4932 343.419 43.5491 342.934 44.3613C342.449 45.1736 341.721 45.9046 340.831 46.392C339.941 46.8793 338.809 47.123 337.677 47.123H333.309V35.5078H337.677C338.89 35.5078 339.941 35.7515 340.831 36.2388ZM339.941 43.7928C340.507 43.2242 340.831 42.4119 340.831 41.2748C340.831 40.2189 340.507 39.3254 339.941 38.7568C339.375 38.1882 338.485 37.8633 337.434 37.8633H336.059V44.6862H337.434C338.566 44.6862 339.375 44.3613 339.941 43.7928Z" fill="#0F5EA2"/>
<path d="M345.441 46.7981C345.118 46.4732 344.956 46.1483 344.956 45.7422C344.956 45.3361 345.118 44.9299 345.441 44.605C345.765 44.2801 346.169 44.1177 346.655 44.1177C347.14 44.1177 347.544 44.2801 347.868 44.605C348.191 44.9299 348.353 45.2548 348.353 45.7422C348.353 46.1483 348.191 46.5544 347.868 46.7981C347.544 47.0418 347.14 47.2042 346.655 47.2042C346.169 47.2855 345.765 47.123 345.441 46.7981Z" fill="#0F5EA2"/>
<path d="M347.787 32.0151H65.1897V33.1523H347.787V32.0151Z" fill="#E21F27"/>
<path d="M95.9246 59.2256L98.7554 51.7529H99.8068L102.88 59.2256H101.748L100.858 56.9513H97.7848L96.976 59.2256H95.9246ZM98.1083 56.2203H100.616L99.8068 54.1897C99.5642 53.5399 99.4024 53.0525 99.2407 52.6464C99.1598 53.1338 98.998 53.6211 98.8363 54.1085L98.1083 56.2203Z" fill="#0F5EA2"/>
<path d="M103.527 59.2256V53.7835H104.336V54.5146C104.741 53.946 105.307 53.6211 106.035 53.6211C106.358 53.6211 106.682 53.7023 106.924 53.7835C107.167 53.8648 107.41 54.0272 107.571 54.2709C107.733 54.4333 107.814 54.677 107.895 54.9207C107.895 55.0831 107.976 55.408 107.976 55.8142V59.1444H107.086V55.8142C107.086 55.408 107.086 55.1644 107.005 55.0019C106.924 54.8395 106.843 54.677 106.601 54.5958C106.439 54.5146 106.196 54.4333 105.954 54.4333C105.549 54.4333 105.226 54.5958 104.983 54.8395C104.741 55.0831 104.579 55.5705 104.579 56.2203V59.1444H103.527V59.2256Z" fill="#0F5EA2"/>
<path d="M110.887 59.2256L113.718 51.7529H114.77L117.843 59.2256H116.711L115.821 56.9513H112.748L111.939 59.2256H110.887ZM113.071 56.2203H115.579L114.77 54.1897C114.527 53.5399 114.365 53.0525 114.204 52.6464C114.123 53.1338 113.961 53.6211 113.799 54.1085L113.071 56.2203Z" fill="#0F5EA2"/>
<path d="M118.167 57.6011L119.056 57.4386C119.137 57.7635 119.218 58.0884 119.461 58.2509C119.703 58.4133 120.027 58.5758 120.431 58.5758C120.836 58.5758 121.159 58.4946 121.402 58.3321C121.645 58.1697 121.725 57.926 121.725 57.7636C121.725 57.5199 121.645 57.3574 121.483 57.2762C121.321 57.195 121.078 57.1137 120.512 56.9513C119.865 56.7888 119.38 56.6264 119.137 56.5452C118.895 56.4639 118.652 56.2203 118.571 56.0578C118.49 55.8954 118.409 55.5705 118.409 55.3268C118.409 55.0831 118.49 54.8394 118.571 54.677C118.652 54.4333 118.814 54.2709 119.056 54.1896C119.218 54.1084 119.38 54.0272 119.623 53.946C119.865 53.8648 120.108 53.8647 120.431 53.8647C120.836 53.8647 121.24 53.946 121.564 54.0272C121.887 54.1084 122.13 54.3521 122.292 54.5145C122.453 54.7582 122.534 55.0019 122.615 55.3268L121.725 55.4892C121.645 55.2456 121.564 55.0019 121.402 54.8395C121.24 54.677 120.917 54.5958 120.593 54.5958C120.189 54.5958 119.865 54.677 119.703 54.8395C119.542 55.0019 119.461 55.1643 119.461 55.3268C119.461 55.408 119.461 55.5705 119.542 55.6517C119.623 55.7329 119.703 55.8141 119.865 55.8954C119.946 55.8954 120.189 55.9766 120.674 56.139C121.321 56.3015 121.806 56.4639 122.049 56.5452C122.292 56.6264 122.534 56.7888 122.615 57.0325C122.696 57.2762 122.858 57.5199 122.858 57.8448C122.858 58.1697 122.777 58.4133 122.615 58.7382C122.453 58.9819 122.211 59.2256 121.887 59.3881C121.564 59.5505 121.159 59.6317 120.755 59.6317C120.027 59.6317 119.542 59.4693 119.137 59.2256C118.49 58.657 118.248 58.2509 118.167 57.6011Z" fill="#0F5EA2"/>
<path d="M123.343 57.6011L124.233 57.4386C124.314 57.7635 124.394 58.0884 124.637 58.2509C124.88 58.4133 125.203 58.5758 125.608 58.5758C126.012 58.5758 126.336 58.4946 126.578 58.3321C126.821 58.1697 126.902 57.926 126.902 57.7636C126.902 57.5199 126.821 57.3574 126.659 57.2762C126.497 57.195 126.255 57.1137 125.689 56.9513C125.042 56.7888 124.556 56.6264 124.314 56.5452C124.071 56.4639 123.828 56.2203 123.747 56.0578C123.667 55.8954 123.586 55.5705 123.586 55.3268C123.586 55.0831 123.667 54.8394 123.747 54.677C123.828 54.4333 123.99 54.2709 124.233 54.1896C124.394 54.1084 124.556 54.0272 124.799 53.946C125.042 53.8648 125.284 53.8647 125.608 53.8647C126.012 53.8647 126.416 53.946 126.74 54.0272C127.064 54.1084 127.306 54.3521 127.468 54.5145C127.63 54.7582 127.711 55.0019 127.791 55.3268L126.902 55.4892C126.821 55.2456 126.74 55.0019 126.578 54.8395C126.416 54.677 126.093 54.5958 125.769 54.5958C125.365 54.5958 125.042 54.677 124.88 54.8395C124.718 55.0019 124.637 55.1643 124.637 55.3268C124.637 55.408 124.637 55.5705 124.718 55.6517C124.799 55.7329 124.88 55.8141 125.042 55.8954C125.122 55.8954 125.365 55.9766 125.85 56.139C126.497 56.3015 126.983 56.4639 127.225 56.5452C127.468 56.6264 127.711 56.7888 127.791 57.0325C127.872 57.2762 128.034 57.5199 128.034 57.8448C128.034 58.1697 127.953 58.4133 127.791 58.7382C127.63 58.9819 127.387 59.2256 127.064 59.3881C126.74 59.5505 126.336 59.6317 125.931 59.6317C125.203 59.6317 124.718 59.4693 124.314 59.2256C123.667 58.657 123.424 58.2509 123.343 57.6011Z" fill="#0F5EA2"/>
<path d="M128.52 56.5449C128.52 55.5702 128.762 54.8391 129.328 54.3518C129.814 53.9457 130.38 53.7832 131.027 53.7832C131.755 53.7832 132.402 54.0269 132.806 54.5142C133.291 55.0016 133.534 55.6514 133.534 56.5449C133.534 57.2759 133.453 57.7632 133.211 58.1694C132.968 58.5755 132.725 58.9004 132.321 59.0628C131.917 59.3065 131.512 59.3877 131.027 59.3877C130.299 59.3877 129.652 59.1441 129.167 58.6567C128.762 58.1694 128.52 57.4383 128.52 56.5449ZM129.49 56.5449C129.49 57.2759 129.652 57.7632 129.975 58.0881C130.299 58.413 130.622 58.5755 131.108 58.5755C131.593 58.5755 131.917 58.413 132.24 58.0881C132.564 57.7632 132.725 57.1947 132.725 56.4636C132.725 55.8138 132.564 55.3265 132.24 54.9204C131.917 54.5955 131.593 54.433 131.108 54.433C130.622 54.433 130.299 54.5955 129.975 54.9204C129.652 55.3265 129.49 55.8951 129.49 56.5449Z" fill="#0F5EA2"/>
<path d="M138.144 57.2762L139.034 57.3574C138.953 58.0072 138.711 58.4946 138.306 58.8195C137.902 59.1444 137.416 59.3068 136.85 59.3068C136.122 59.3068 135.556 59.0632 135.071 58.5758C134.586 58.0885 134.424 57.4387 134.424 56.464C134.424 55.8954 134.505 55.408 134.747 54.9207C134.909 54.5146 135.233 54.1897 135.637 53.946C136.041 53.7023 136.446 53.6211 136.931 53.6211C137.497 53.6211 137.983 53.7835 138.387 54.0272C138.791 54.3521 139.034 54.7582 139.115 55.3268L138.225 55.4893C138.144 55.1644 137.983 54.8395 137.74 54.677C137.497 54.5146 137.255 54.4333 136.931 54.4333C136.446 54.4333 136.122 54.5958 135.799 54.9207C135.475 55.2456 135.394 55.8142 135.394 56.464C135.394 57.195 135.556 57.6823 135.799 58.0885C136.041 58.4946 136.446 58.5758 136.85 58.5758C137.174 58.5758 137.497 58.4946 137.74 58.2509C137.983 58.0072 138.063 57.7636 138.144 57.2762Z" fill="#0F5EA2"/>
<path d="M139.843 52.8089V51.7529H140.732V52.8089H139.843ZM139.843 59.2256V53.7836H140.732V59.2256H139.843Z" fill="#0F5EA2"/>
<path d="M145.666 58.5758C145.343 58.9007 145.019 59.0632 144.696 59.2256C144.372 59.3068 144.049 59.3881 143.725 59.3881C143.159 59.3881 142.674 59.2256 142.35 58.9819C142.027 58.657 141.865 58.3321 141.865 57.8448C141.865 57.6011 141.946 57.3574 142.027 57.1138C142.107 56.8701 142.269 56.7076 142.512 56.5452C142.674 56.3827 142.916 56.3015 143.159 56.2203C143.321 56.1391 143.644 56.1391 143.968 56.0578C144.696 55.9766 145.262 55.8954 145.585 55.7329C145.585 55.5705 145.585 55.4893 145.585 55.4893C145.585 55.0831 145.504 54.8395 145.343 54.677C145.1 54.4333 144.776 54.3521 144.291 54.3521C143.887 54.3521 143.563 54.4333 143.321 54.5958C143.078 54.7582 142.997 55.0019 142.835 55.408L141.946 55.2456C142.027 54.8395 142.188 54.5146 142.35 54.3521C142.512 54.1084 142.835 53.946 143.159 53.7835C143.482 53.6211 143.887 53.6211 144.372 53.6211C144.857 53.6211 145.181 53.7023 145.504 53.7835C145.828 53.8648 145.99 54.0272 146.151 54.1897C146.313 54.3521 146.394 54.5958 146.475 54.8395C146.475 55.0019 146.556 55.2456 146.556 55.6517V56.8701C146.556 57.6823 146.556 58.2509 146.637 58.4946C146.718 58.7383 146.718 58.9007 146.879 59.1444H145.909C145.747 59.0632 145.666 58.8195 145.666 58.5758ZM145.585 56.5452C145.262 56.7076 144.776 56.7889 144.129 56.8701C143.725 56.9513 143.482 56.9513 143.321 57.0325C143.159 57.1138 143.078 57.195 142.997 57.3574C142.916 57.5199 142.835 57.6011 142.835 57.7636C142.835 58.0072 142.916 58.2509 143.078 58.4134C143.24 58.5758 143.563 58.657 143.887 58.657C144.21 58.657 144.534 58.5758 144.857 58.4134C145.181 58.2509 145.343 58.0072 145.424 57.7636C145.504 57.5199 145.585 57.2762 145.585 56.8701V56.5452Z" fill="#0F5EA2"/>
<path d="M149.872 58.413L150.034 59.2253C149.791 59.3065 149.549 59.3065 149.306 59.3065C148.982 59.3065 148.74 59.2253 148.497 59.1441C148.254 59.0628 148.174 58.9004 148.093 58.7379C148.012 58.5755 148.012 58.1694 148.012 57.682V54.5955H147.365V53.8644H148.012V52.4836L148.901 51.915V53.7832H149.791V54.5142H148.901V57.682C148.901 57.9257 148.901 58.0881 148.982 58.1694C149.063 58.2506 149.063 58.3318 149.144 58.3318C149.225 58.413 149.306 58.413 149.468 58.413C149.549 58.4943 149.71 58.4943 149.872 58.413Z" fill="#0F5EA2"/>
<path d="M154.401 57.5196L155.372 57.6008C155.21 58.1694 154.968 58.5755 154.563 58.9004C154.159 59.2253 153.673 59.3877 153.026 59.3877C152.218 59.3877 151.651 59.1441 151.166 58.6567C150.681 58.1694 150.438 57.5196 150.438 56.6261C150.438 55.7326 150.681 55.0016 151.166 54.5142C151.651 54.0269 152.218 53.7832 152.946 53.7832C153.673 53.7832 154.24 54.0269 154.725 54.5142C155.21 55.0016 155.372 55.7326 155.372 56.6261C155.372 56.7073 155.372 56.7885 155.372 56.8698H151.328C151.328 57.4383 151.49 57.9257 151.813 58.2506C152.137 58.5755 152.46 58.7379 152.946 58.7379C153.269 58.7379 153.593 58.6567 153.835 58.4943C154.078 58.1694 154.32 57.9257 154.401 57.5196ZM151.49 56.0575H154.482C154.401 55.5702 154.321 55.2453 154.159 55.0016C153.835 54.6767 153.512 54.433 153.026 54.433C152.622 54.433 152.218 54.5955 151.975 54.8391C151.651 55.164 151.49 55.5702 151.49 56.0575Z" fill="#0F5EA2"/>
<path d="M164.835 56.6263L165.805 56.87C165.563 57.6822 165.239 58.332 164.673 58.7381C164.107 59.1443 163.46 59.3879 162.732 59.3879C161.923 59.3879 161.276 59.2255 160.791 58.9006C160.306 58.5757 159.901 58.0883 159.659 57.4385C159.416 56.7887 159.254 56.1389 159.254 55.4079C159.254 54.5957 159.416 53.9459 159.659 53.3773C159.982 52.8087 160.386 52.3214 160.953 52.0777C161.519 51.834 162.085 51.5903 162.732 51.5903C163.46 51.5903 164.107 51.7528 164.592 52.1589C165.078 52.565 165.482 53.0524 165.644 53.7834L164.673 54.0271C164.511 53.4585 164.269 53.0524 163.945 52.8087C163.622 52.565 163.217 52.4026 162.732 52.4026C162.166 52.4026 161.681 52.565 161.276 52.8087C160.872 53.0524 160.629 53.4585 160.467 53.9459C160.306 54.4332 160.225 54.9206 160.225 55.4079C160.225 56.0577 160.306 56.6263 160.467 57.0324C160.629 57.5198 160.953 57.8447 161.357 58.0883C161.761 58.332 162.166 58.4132 162.651 58.4132C163.217 58.4132 163.703 58.2508 164.026 57.9259C164.431 57.7634 164.673 57.2761 164.835 56.6263Z" fill="#0F5EA2"/>
<path d="M166.533 56.5449C166.533 55.5702 166.776 54.8391 167.342 54.3518C167.828 53.9457 168.394 53.7832 169.041 53.7832C169.769 53.7832 170.416 54.0269 170.82 54.5142C171.305 55.0016 171.548 55.6514 171.548 56.5449C171.548 57.2759 171.467 57.7632 171.225 58.1694C170.982 58.5755 170.739 58.9004 170.335 59.0628C169.93 59.3065 169.526 59.3877 169.041 59.3877C168.313 59.3877 167.666 59.1441 167.18 58.6567C166.776 58.1694 166.533 57.4383 166.533 56.5449ZM167.504 56.5449C167.504 57.2759 167.666 57.7632 167.989 58.0881C168.313 58.413 168.636 58.5755 169.122 58.5755C169.607 58.5755 169.93 58.413 170.254 58.0881C170.577 57.7632 170.739 57.1947 170.739 56.4636C170.739 55.8138 170.577 55.3265 170.254 54.9204C169.93 54.5955 169.607 54.433 169.122 54.433C168.636 54.433 168.313 54.5955 167.989 54.9204C167.666 55.3265 167.504 55.8951 167.504 56.5449Z" fill="#0F5EA2"/>
<path d="M172.68 59.2256V53.7835H173.489V54.5146C173.651 54.2709 173.893 54.0272 174.136 53.8648C174.379 53.7023 174.702 53.6211 175.107 53.6211C175.511 53.6211 175.835 53.7023 176.077 53.8648C176.32 54.0272 176.482 54.2709 176.643 54.5958C177.048 53.946 177.614 53.6211 178.342 53.6211C178.908 53.6211 179.312 53.7835 179.555 54.0272C179.879 54.3521 179.959 54.7582 179.959 55.408V59.1444H179.07V55.7329C179.07 55.3268 179.07 55.0831 178.989 54.9207C178.908 54.7582 178.827 54.5958 178.665 54.5146C178.504 54.4333 178.342 54.3521 178.099 54.3521C177.695 54.3521 177.371 54.5146 177.129 54.7582C176.886 55.0019 176.724 55.408 176.724 55.9766V59.1444H175.835V55.7329C175.835 55.3268 175.754 55.0019 175.592 54.8395C175.43 54.677 175.187 54.5146 174.864 54.5146C174.621 54.5146 174.379 54.5958 174.136 54.7582C173.893 54.9207 173.732 55.0831 173.651 55.3268C173.57 55.5705 173.489 55.9766 173.489 56.464V59.3068H172.68V59.2256Z" fill="#0F5EA2"/>
<path d="M181.254 61.3373V53.8646H182.062V54.5956C182.224 54.3519 182.467 54.1083 182.71 53.9458C182.952 53.7834 183.276 53.7021 183.599 53.7021C184.084 53.7021 184.489 53.7834 184.812 54.027C185.136 54.2707 185.459 54.5956 185.621 55.0017C185.783 55.4079 185.864 55.8952 185.864 56.4638C185.864 57.0324 185.783 57.5197 185.54 57.9258C185.379 58.332 185.055 58.7381 184.651 58.9818C184.246 59.2255 183.842 59.3067 183.437 59.3067C183.114 59.3067 182.871 59.2254 182.629 59.1442C182.386 58.9818 182.224 58.8193 182.062 58.6569V61.2561H181.254V61.3373ZM182.062 56.545C182.062 57.2761 182.224 57.7634 182.467 58.0883C182.71 58.4132 183.114 58.5757 183.518 58.5757C183.923 58.5757 184.246 58.4132 184.57 58.0883C184.893 57.7634 184.974 57.1948 184.974 56.4638C184.974 55.814 184.812 55.2454 184.57 54.9205C184.327 54.5956 183.923 54.4332 183.599 54.4332C183.195 54.4332 182.871 54.5956 182.548 55.0017C182.224 55.4079 182.062 55.8952 182.062 56.545Z" fill="#0F5EA2"/>
<path d="M190.555 58.5758C190.231 58.9007 189.908 59.0632 189.584 59.2256C189.261 59.3068 188.937 59.3881 188.614 59.3881C188.048 59.3881 187.562 59.2256 187.239 58.9819C186.915 58.657 186.753 58.3321 186.753 57.8448C186.753 57.6011 186.834 57.3574 186.915 57.1138C186.996 56.8701 187.158 56.7076 187.4 56.5452C187.562 56.3827 187.805 56.3015 188.048 56.2203C188.209 56.1391 188.533 56.1391 188.856 56.0578C189.584 55.9766 190.15 55.8954 190.474 55.7329C190.474 55.5705 190.474 55.4893 190.474 55.4893C190.474 55.0831 190.393 54.8395 190.231 54.677C189.989 54.4333 189.665 54.3521 189.18 54.3521C188.775 54.3521 188.452 54.4333 188.209 54.5958C187.967 54.7582 187.886 55.0019 187.724 55.408L186.834 55.2456C186.915 54.8395 187.077 54.5146 187.239 54.3521C187.4 54.1084 187.724 53.946 188.048 53.7835C188.371 53.6211 188.775 53.6211 189.261 53.6211C189.746 53.6211 190.07 53.7023 190.393 53.7835C190.717 53.8648 190.878 54.0272 191.04 54.1897C191.202 54.3521 191.283 54.5958 191.283 54.8395C191.283 55.0019 191.364 55.2456 191.364 55.6517V56.8701C191.364 57.6823 191.364 58.2509 191.444 58.4946C191.444 58.7383 191.525 58.9007 191.687 59.1444H190.717C190.636 59.0632 190.555 58.8195 190.555 58.5758ZM190.474 56.5452C190.15 56.7076 189.665 56.7889 189.018 56.8701C188.614 56.9513 188.371 56.9513 188.209 57.0325C188.048 57.1138 187.967 57.195 187.886 57.3574C187.805 57.5199 187.724 57.6011 187.724 57.7636C187.724 58.0072 187.805 58.2509 187.967 58.4134C188.128 58.5758 188.452 58.657 188.775 58.657C189.099 58.657 189.422 58.5758 189.746 58.4134C190.07 58.2509 190.231 58.0072 190.312 57.7636C190.393 57.5199 190.474 57.2762 190.474 56.8701V56.5452Z" fill="#0F5EA2"/>
<path d="M192.82 59.2256V53.7835H193.628V54.5146C194.033 53.946 194.599 53.6211 195.327 53.6211C195.65 53.6211 195.974 53.7023 196.217 53.7835C196.459 53.8648 196.702 54.0272 196.864 54.2709C197.025 54.4333 197.106 54.677 197.187 54.9207C197.187 55.0831 197.268 55.408 197.268 55.8142V59.1444H196.378V55.8142C196.378 55.408 196.378 55.1644 196.297 55.0019C196.217 54.8395 196.136 54.677 195.893 54.5958C195.731 54.5146 195.489 54.4333 195.246 54.4333C194.842 54.4333 194.518 54.5958 194.275 54.8395C194.033 55.0831 193.871 55.5705 193.871 56.2203V59.1444H192.82V59.2256Z" fill="#0F5EA2"/>
<path d="M198.481 61.3371L198.4 60.4437C198.562 60.5249 198.805 60.5249 198.886 60.5249C199.047 60.5249 199.29 60.5249 199.371 60.4437C199.452 60.3624 199.613 60.2812 199.694 60.1188C199.775 60.0375 199.856 59.7939 199.937 59.469C199.937 59.3877 200.018 59.3065 200.018 59.2253L197.996 53.7832H198.966L200.099 56.951C200.261 57.3571 200.341 57.7632 200.503 58.1694C200.584 57.7632 200.746 57.3571 200.908 56.951L202.04 53.7832H202.93L200.908 59.3065C200.665 59.8751 200.503 60.2812 200.422 60.5249C200.261 60.8498 200.099 61.0122 199.856 61.1747C199.613 61.3371 199.371 61.4184 199.128 61.4184C198.966 61.4184 198.724 61.4184 198.481 61.3371Z" fill="#0F5EA2"/>
<path d="M206.246 56.5449C206.246 55.5702 206.488 54.8391 207.055 54.3518C207.54 53.9457 208.106 53.7832 208.753 53.7832C209.481 53.7832 210.128 54.0269 210.533 54.5142C211.018 55.0016 211.26 55.6514 211.26 56.5449C211.26 57.2759 211.18 57.7632 210.937 58.1694C210.694 58.5755 210.452 58.9004 210.047 59.0628C209.643 59.3065 209.238 59.3877 208.753 59.3877C208.025 59.3877 207.378 59.1441 206.893 58.6567C206.488 58.1694 206.246 57.4383 206.246 56.5449ZM207.216 56.5449C207.216 57.2759 207.378 57.7632 207.702 58.0881C208.025 58.413 208.349 58.5755 208.834 58.5755C209.319 58.5755 209.643 58.413 209.966 58.0881C210.29 57.7632 210.452 57.1947 210.452 56.4636C210.452 55.8138 210.29 55.3265 209.966 54.9204C209.643 54.5955 209.319 54.433 208.834 54.433C208.349 54.433 208.025 54.5955 207.702 54.9204C207.378 55.3265 207.216 55.8951 207.216 56.5449Z" fill="#0F5EA2"/>
<path d="M212.554 59.2253V54.5143H211.746V53.7832H212.554V53.2959C212.554 52.971 212.554 52.6461 212.635 52.4836C212.716 52.24 212.878 52.0775 213.121 51.9151C213.363 51.7526 213.687 51.6714 214.01 51.6714C214.253 51.6714 214.576 51.6714 214.9 51.7526L214.738 52.5649C214.576 52.5649 214.334 52.4836 214.172 52.4836C213.929 52.4836 213.687 52.5649 213.606 52.6461C213.525 52.7273 213.444 52.971 213.444 53.2959V53.7832H214.496V54.5143H213.525V59.2253H212.554Z" fill="#0F5EA2"/>
<path d="M218.216 59.2256V51.7529H219.672L221.451 57.0326C221.613 57.5199 221.694 57.926 221.775 58.1697C221.856 57.926 222.017 57.5199 222.179 56.9513L223.959 51.7529H225.253V59.2256H224.282V52.9713L222.098 59.2256H221.209L219.025 52.8901V59.2256H218.216Z" fill="#0F5EA2"/>
<path d="M230.267 59.2253V58.413C229.863 59.0628 229.297 59.3065 228.569 59.3065C228.245 59.3065 227.922 59.2253 227.679 59.1441C227.436 58.9816 227.194 58.9004 227.032 58.6567C226.87 58.4943 226.789 58.2506 226.789 58.0069C226.789 57.8445 226.708 57.5196 226.708 57.1134V53.7832H227.598V56.7885C227.598 57.2759 227.598 57.6008 227.679 57.7632C227.76 58.0069 227.841 58.1694 228.003 58.3318C228.164 58.4943 228.407 58.5755 228.731 58.5755C229.054 58.5755 229.297 58.4943 229.539 58.3318C229.782 58.1694 229.944 58.0069 230.025 57.7632C230.105 57.5196 230.186 57.1947 230.186 56.7073V53.7832H231.076V59.2253H230.267Z" fill="#0F5EA2"/>
<path d="M232.532 59.2256V51.7529H233.422V55.9766L235.605 53.7836H236.819L234.797 55.8142L237.061 59.2256H235.929L234.15 56.464L233.503 57.1138V59.2256H232.532Z" fill="#0F5EA2"/>
<path d="M239.65 58.413L239.811 59.2253C239.569 59.3065 239.326 59.3065 239.164 59.3065C238.841 59.3065 238.598 59.2253 238.355 59.1441C238.194 59.0628 238.032 58.9004 237.951 58.7379C237.87 58.5755 237.87 58.1694 237.87 57.682V54.5955H237.223V53.8644H237.87V52.4836L238.76 51.915V53.7832H239.65V54.5142H238.76V57.682C238.76 57.9257 238.76 58.0881 238.841 58.1694C238.922 58.2506 238.922 58.3318 239.003 58.3318C239.083 58.3318 239.164 58.413 239.326 58.413C239.407 58.4943 239.488 58.4943 239.65 58.413Z" fill="#0F5EA2"/>
<path d="M240.62 52.8089V51.7529H241.51V52.8089H240.62ZM240.62 59.2256V53.7836H241.51V59.2256H240.62Z" fill="#0F5EA2"/>
<path d="M242.885 59.2256V53.7835H243.694V54.5146C244.098 53.946 244.664 53.6211 245.392 53.6211C245.716 53.6211 246.039 53.7023 246.282 53.7835C246.524 53.8648 246.767 54.0272 246.929 54.2709C247.091 54.5146 247.171 54.677 247.252 54.9207C247.252 55.0831 247.333 55.408 247.333 55.8142V59.1444H246.444V55.8142C246.444 55.408 246.444 55.1644 246.363 55.0019C246.282 54.8395 246.201 54.677 245.958 54.5958C245.796 54.5146 245.554 54.4333 245.311 54.4333C244.907 54.4333 244.583 54.5958 244.341 54.8395C244.098 55.0831 243.936 55.5705 243.936 56.2203V59.1444H242.885V59.2256Z" fill="#0F5EA2"/>
<path d="M252.186 58.5758C251.862 58.9007 251.539 59.0632 251.215 59.2256C250.892 59.3068 250.568 59.3881 250.245 59.3881C249.679 59.3881 249.193 59.2256 248.87 58.9819C248.546 58.657 248.385 58.3321 248.385 57.8448C248.385 57.6011 248.465 57.3574 248.546 57.1138C248.627 56.8701 248.789 56.7076 249.032 56.5452C249.193 56.3827 249.436 56.3015 249.679 56.2203C249.84 56.1391 250.164 56.1391 250.487 56.0578C251.215 55.9766 251.782 55.8954 252.105 55.7329C252.105 55.5705 252.105 55.4893 252.105 55.4893C252.105 55.0831 252.024 54.8395 251.862 54.677C251.62 54.4333 251.296 54.3521 250.811 54.3521C250.407 54.3521 250.083 54.4333 249.84 54.5958C249.598 54.7582 249.517 55.0019 249.355 55.408L248.465 55.2456C248.546 54.8395 248.708 54.5146 248.87 54.3521C249.032 54.1084 249.355 53.946 249.679 53.7835C250.002 53.6211 250.407 53.6211 250.892 53.6211C251.377 53.6211 251.701 53.7023 252.024 53.7835C252.348 53.8648 252.509 54.0272 252.671 54.1897C252.833 54.3521 252.914 54.5958 252.914 54.8395C252.914 55.0019 252.995 55.2456 252.995 55.6517V56.8701C252.995 57.6823 252.995 58.2509 253.076 58.4946C253.076 58.7383 253.156 58.9007 253.318 59.1444H252.348C252.267 59.0632 252.186 58.8195 252.186 58.5758ZM252.105 56.5452C251.782 56.7076 251.296 56.7889 250.649 56.8701C250.245 56.9513 250.002 56.9513 249.84 57.0325C249.679 57.1138 249.598 57.195 249.517 57.3574C249.436 57.5199 249.355 57.6011 249.355 57.7636C249.355 58.0072 249.436 58.2509 249.598 58.4134C249.759 58.5758 250.083 58.657 250.407 58.657C250.73 58.657 251.054 58.5758 251.377 58.4134C251.701 58.2509 251.862 58.0072 251.943 57.7636C252.024 57.5199 252.105 57.2762 252.105 56.8701V56.5452Z" fill="#0F5EA2"/>
<path d="M256.392 58.413L256.554 59.2253C256.311 59.3065 256.068 59.3065 255.826 59.3065C255.502 59.3065 255.259 59.2253 255.017 59.1441C254.855 59.0628 254.693 58.9004 254.612 58.7379C254.532 58.5755 254.532 58.1694 254.532 57.682V54.5955H253.885V53.8644H254.532V52.4836L255.421 51.915V53.7832H256.311V54.5142H255.421V57.682C255.421 57.9257 255.421 58.0881 255.502 58.1694C255.583 58.2506 255.583 58.3318 255.664 58.3318C255.745 58.413 255.826 58.413 255.987 58.413C256.068 58.4943 256.23 58.4943 256.392 58.413Z" fill="#0F5EA2"/>
<path d="M257.281 59.2256V51.7529H258.171V54.4334C258.576 53.946 259.142 53.7023 259.789 53.7023C260.193 53.7023 260.517 53.7836 260.84 53.946C261.164 54.1085 261.326 54.3521 261.487 54.5958C261.649 54.8395 261.649 55.2456 261.649 55.8142V59.2256H260.759V55.8142C260.759 55.3268 260.678 55.0019 260.436 54.8395C260.274 54.5958 259.951 54.5146 259.627 54.5146C259.384 54.5146 259.142 54.5958 258.899 54.7583C258.656 54.9207 258.495 55.0832 258.414 55.3268C258.333 55.5705 258.252 55.8954 258.252 56.3015V59.2256H257.281Z" fill="#0F5EA2"/>
<path d="M266.017 59.2256V51.7529H268.767C269.333 51.7529 269.818 51.8342 270.142 51.9966C270.465 52.1591 270.789 52.4027 270.95 52.7276C271.112 53.0525 271.274 53.3774 271.274 53.7023C271.274 54.0272 271.193 54.3521 271.031 54.5958C270.869 54.8395 270.627 55.0832 270.222 55.2456C270.708 55.4081 271.031 55.5705 271.274 55.8954C271.516 56.2203 271.597 56.6264 271.597 57.0326C271.597 57.3575 271.516 57.6824 271.355 58.0073C271.193 58.3322 271.031 58.5758 270.789 58.7383C270.546 58.9007 270.303 59.0632 269.98 59.1444C269.656 59.2256 269.252 59.3069 268.767 59.3069H266.017V59.2256ZM266.987 54.9207H268.605C269.009 54.9207 269.333 54.9207 269.575 54.8395C269.818 54.7583 269.98 54.677 270.142 54.4334C270.303 54.2709 270.303 54.0272 270.303 53.7836C270.303 53.5399 270.222 53.2962 270.142 53.1338C270.061 52.9713 269.818 52.8089 269.656 52.7276C269.414 52.6464 269.09 52.6464 268.524 52.6464H267.068V54.9207H266.987ZM266.987 58.3322H268.847C269.171 58.3322 269.414 58.3322 269.494 58.3322C269.737 58.2509 269.899 58.2509 270.061 58.0885C270.222 57.926 270.303 57.8448 270.465 57.6824C270.627 57.5199 270.627 57.2762 270.627 57.0326C270.627 56.7889 270.546 56.5452 270.384 56.3015C270.222 56.0579 270.061 55.9766 269.818 55.8954C269.575 55.8142 269.171 55.733 268.767 55.733H267.068V58.3322H266.987Z" fill="#0F5EA2"/>
<path d="M272.811 52.8089V51.7529H273.7V52.8089H272.811ZM272.811 59.2256V53.7836H273.7V59.2256H272.811Z" fill="#0F5EA2"/>
<path d="M275.156 59.2256V51.7529H276.046V55.9766L278.229 53.7836H279.443L277.421 55.8142L279.685 59.2256H278.553L276.774 56.464L276.127 57.1138V59.2256H275.156Z" fill="#0F5EA2"/>
<path d="M283.81 58.5758C283.487 58.9007 283.163 59.0632 282.84 59.2256C282.516 59.3068 282.193 59.3881 281.869 59.3881C281.303 59.3881 280.818 59.2256 280.494 58.9819C280.171 58.657 280.009 58.3321 280.009 57.8448C280.009 57.6011 280.09 57.3574 280.171 57.1138C280.252 56.8701 280.413 56.7076 280.656 56.5452C280.818 56.3827 281.06 56.3015 281.303 56.2203C281.465 56.1391 281.788 56.1391 282.112 56.0578C282.84 55.9766 283.406 55.8954 283.73 55.7329C283.73 55.5705 283.73 55.4893 283.73 55.4893C283.73 55.0831 283.649 54.8395 283.487 54.677C283.244 54.4333 282.921 54.3521 282.435 54.3521C282.031 54.3521 281.708 54.4333 281.465 54.5958C281.222 54.7582 281.141 55.0019 280.98 55.408L280.09 55.2456C280.171 54.8395 280.333 54.5146 280.494 54.3521C280.656 54.1084 280.98 53.946 281.303 53.7835C281.627 53.6211 282.031 53.6211 282.516 53.6211C283.002 53.6211 283.325 53.7023 283.649 53.7835C283.972 53.8648 284.134 54.0272 284.296 54.1897C284.457 54.3521 284.538 54.5958 284.538 54.8395C284.538 55.0019 284.619 55.2456 284.619 55.6517V56.8701C284.619 57.6823 284.619 58.2509 284.7 58.4946C284.781 58.7383 284.781 58.9007 284.943 59.1444H283.972C283.891 59.0632 283.81 58.8195 283.81 58.5758ZM283.73 56.5452C283.406 56.7076 282.921 56.7889 282.274 56.8701C281.869 56.9513 281.627 56.9513 281.465 57.0325C281.303 57.1138 281.222 57.195 281.141 57.3574C281.06 57.5199 280.98 57.6011 280.98 57.7636C280.98 58.0072 281.06 58.2509 281.222 58.4134C281.384 58.5758 281.708 58.657 282.031 58.657C282.355 58.657 282.678 58.5758 283.002 58.4134C283.325 58.2509 283.487 58.0072 283.568 57.7636C283.649 57.5199 283.73 57.2762 283.73 56.8701V56.5452Z" fill="#0F5EA2"/>
<path d="M285.671 57.6011L286.56 57.4386C286.641 57.7635 286.722 58.0884 286.965 58.2509C287.207 58.4133 287.531 58.5758 287.935 58.5758C288.34 58.5758 288.663 58.4946 288.906 58.3321C289.149 58.1697 289.229 57.926 289.229 57.7636C289.229 57.5199 289.149 57.3574 288.987 57.2762C288.825 57.195 288.582 57.1137 288.016 56.9513C287.369 56.7888 286.884 56.6264 286.641 56.5452C286.399 56.4639 286.156 56.2203 286.075 56.0578C285.994 55.8954 285.913 55.5705 285.913 55.3268C285.913 55.0831 285.994 54.8394 286.075 54.677C286.156 54.4333 286.318 54.2709 286.56 54.1896C286.722 54.1084 286.884 54.0272 287.126 53.946C287.369 53.8648 287.612 53.8647 287.935 53.8647C288.34 53.8647 288.744 53.946 289.068 54.0272C289.391 54.1896 289.634 54.3521 289.796 54.5145C289.957 54.7582 290.038 55.0019 290.119 55.3268L289.229 55.4892C289.229 55.2456 289.068 55.0019 288.906 54.8395C288.744 54.677 288.421 54.5958 288.097 54.5958C287.693 54.5958 287.369 54.677 287.207 54.8395C287.046 55.0019 286.965 55.1643 286.965 55.3268C286.965 55.408 286.965 55.5705 287.046 55.6517C287.126 55.7329 287.207 55.8141 287.369 55.8954C287.45 55.8954 287.693 55.9766 288.178 56.139C288.825 56.3015 289.31 56.4639 289.553 56.5452C289.796 56.6264 290.038 56.7888 290.119 57.0325C290.281 57.2762 290.362 57.5199 290.362 57.8448C290.362 58.1697 290.281 58.4133 290.119 58.7382C289.957 58.9819 289.715 59.2256 289.391 59.3881C289.068 59.5505 288.663 59.6317 288.259 59.6317C287.531 59.6317 287.046 59.4693 286.641 59.2256C286.237 58.9819 285.832 58.2509 285.671 57.6011Z" fill="#0F5EA2"/>
<path d="M294.244 59.2256V51.7529H296.994C297.56 51.7529 298.045 51.8342 298.369 51.9966C298.692 52.1591 299.016 52.4027 299.178 52.7276C299.339 53.0525 299.501 53.3774 299.501 53.7023C299.501 54.0272 299.42 54.3521 299.259 54.5958C299.097 54.8395 298.854 55.0832 298.45 55.2456C298.935 55.4081 299.258 55.5705 299.501 55.8954C299.744 56.2203 299.825 56.6264 299.825 57.0326C299.825 57.3575 299.744 57.6824 299.582 58.0073C299.42 58.3322 299.259 58.5758 299.016 58.7383C298.773 58.9007 298.531 59.0632 298.207 59.1444C297.884 59.2256 297.479 59.3069 296.994 59.3069H294.244V59.2256ZM295.214 54.9207H296.832C297.236 54.9207 297.56 54.9207 297.803 54.8395C298.045 54.7583 298.207 54.677 298.369 54.4334C298.531 54.2709 298.531 54.0272 298.531 53.7836C298.531 53.5399 298.45 53.2962 298.369 53.1338C298.288 52.9713 298.045 52.8089 297.884 52.7276C297.641 52.6464 297.317 52.6464 296.751 52.6464H295.214V54.9207ZM295.214 58.3322H297.075C297.398 58.3322 297.641 58.3322 297.722 58.3322C297.964 58.2509 298.126 58.2509 298.288 58.0885C298.45 57.926 298.531 57.8448 298.692 57.6824C298.854 57.5199 298.854 57.2762 298.854 57.0326C298.854 56.7889 298.773 56.5452 298.611 56.3015C298.45 56.0579 298.288 55.9766 298.045 55.8954C297.803 55.8142 297.398 55.733 296.994 55.733H295.214V58.3322Z" fill="#0F5EA2"/>
<path d="M304.516 58.5758C304.192 58.9007 303.869 59.0632 303.545 59.2256C303.222 59.3068 302.898 59.3881 302.575 59.3881C302.008 59.3881 301.523 59.2256 301.2 58.9819C300.876 58.657 300.714 58.3321 300.714 57.8448C300.714 57.6011 300.795 57.3574 300.876 57.1138C300.957 56.8701 301.119 56.7076 301.361 56.5452C301.523 56.3827 301.766 56.3015 302.008 56.2203C302.17 56.1391 302.494 56.1391 302.817 56.0578C303.545 55.9766 304.111 55.8954 304.435 55.7329C304.435 55.5705 304.435 55.4893 304.435 55.4893C304.435 55.0831 304.354 54.8395 304.192 54.677C303.95 54.4333 303.626 54.3521 303.141 54.3521C302.736 54.3521 302.413 54.4333 302.17 54.5958C301.928 54.7582 301.847 55.0019 301.685 55.408L300.795 55.2456C300.876 54.8395 301.038 54.5146 301.2 54.3521C301.361 54.1084 301.685 53.946 302.008 53.7835C302.332 53.6211 302.736 53.6211 303.222 53.6211C303.707 53.6211 304.03 53.7023 304.354 53.7835C304.678 53.8648 304.839 54.0272 305.001 54.1897C305.163 54.3521 305.244 54.5958 305.325 54.8395C305.325 55.0019 305.405 55.2456 305.405 55.6517V56.8701C305.405 57.6823 305.405 58.2509 305.486 58.4946C305.486 58.7383 305.567 58.9007 305.729 59.1444H304.758C304.597 59.0632 304.597 58.8195 304.516 58.5758ZM304.435 56.5452C304.111 56.7076 303.626 56.7889 302.979 56.8701C302.575 56.9513 302.332 56.9513 302.17 57.0325C302.008 57.1138 301.928 57.195 301.847 57.3574C301.766 57.5199 301.685 57.6011 301.685 57.7636C301.685 58.0072 301.766 58.2509 301.928 58.4134C302.089 58.5758 302.413 58.657 302.736 58.657C303.06 58.657 303.383 58.5758 303.707 58.4134C304.03 58.2509 304.192 58.0072 304.273 57.7636C304.354 57.5199 304.435 57.2762 304.435 56.8701V56.5452Z" fill="#0F5EA2"/>
<path d="M306.78 59.2256V53.7835H307.589V54.5146C307.993 53.946 308.56 53.6211 309.288 53.6211C309.611 53.6211 309.935 53.7023 310.177 53.7835C310.42 53.8648 310.663 54.0272 310.824 54.2709C310.986 54.4333 311.067 54.677 311.067 54.9207C311.067 55.0831 311.148 55.408 311.148 55.8142V59.1444H310.258V55.8142C310.258 55.408 310.258 55.1644 310.177 55.0019C310.096 54.8395 310.016 54.677 309.773 54.5958C309.611 54.5146 309.368 54.4333 309.126 54.4333C308.721 54.4333 308.398 54.5958 308.155 54.8395C307.913 55.0831 307.751 55.5705 307.751 56.2203V59.1444H306.78V59.2256Z" fill="#0F5EA2"/>
<path d="M312.604 59.2256V51.7529H313.493V55.9766L315.677 53.7836H316.89L314.868 55.8142L317.133 59.2256H316.001L314.221 56.464L313.574 57.1138V59.2256H312.604Z" fill="#0F5EA2"/>
</g>
<defs>
<clipPath id="clip0_516_238">
<rect width="349" height="61" fill="white" transform="translate(0 0.5)"/>
</clipPath>
</defs>
</svg>
